<svg xmlns="http://www.w3.org/2000/svg" width="20" height="24" viewBox="0 0 20 24">
  <g id="Group_2030" data-name="Group 2030" transform="translate(-2)">
    <path id="Path_11788" data-name="Path 11788" d="M17.384,4.81H3.552V22.38H17.384v-.257q0-1.912,0-3.825a.778.778,0,1,1,1.538-.011q0,2.412,0,4.825a.788.788,0,0,1-.846.887H2.838A.783.783,0,0,1,2,23.129Q2,12.005,2,.881A.787.787,0,0,1,2.853,0H18.067a.789.789,0,0,1,.855.878q0,5.175,0,10.349a.775.775,0,1,1-1.538,0q0-3.049,0-6.1ZM3.55,3.183H17.365V1.612H3.55Z" fill="#9ba7ac"/>
    <path id="Path_11789" data-name="Path 11789" d="M13.007,18.9l1.806-1.756q2.922-2.842,5.844-5.685a.758.758,0,0,1,1.315.339.813.813,0,0,1-.264.83q-1.6,1.553-3.193,3.108l-4.88,4.746a.774.774,0,0,1-1.258,0q-1.958-1.9-3.913-3.809a.83.83,0,0,1-.1-1.193.758.758,0,0,1,1.152.023q1.633,1.587,3.263,3.177Z" fill="#9ba7ac"/>
    <path id="Path_11790" data-name="Path 11790" d="M9.763,10.25q-2.16,0-4.322,0a.78.78,0,0,1-.793-.712.8.8,0,0,1,.581-.861.941.941,0,0,1,.237-.025q4.3,0,8.6,0a.784.784,0,0,1,.817.713.793.793,0,0,1-.581.86,1.274,1.274,0,0,1-.309.025Q11.877,10.252,9.763,10.25Z" fill="#9ba7ac"/>
    <path id="Path_11791" data-name="Path 11791" d="M8.42,11.2c.985,0,1.969,0,2.953,0a.775.775,0,0,1,.767.713.8.8,0,0,1-.581.86.857.857,0,0,1-.214.024q-2.953,0-5.906,0a.78.78,0,0,1-.791-.714.794.794,0,0,1,.582-.859,1.133,1.133,0,0,1,.285-.025Q6.969,11.2,8.42,11.2Z" fill="#9ba7ac"/>
    <path id="Path_11792" data-name="Path 11792" d="M7.154,6.1c.552,0,1.1,0,1.656,0a.8.8,0,1,1,0,1.6q-1.668,0-3.335,0a.8.8,0,1,1,0-1.6C6.035,6.1,6.594,6.1,7.154,6.1Z" fill="#9ba7ac"/>
  </g>
</svg>
