<svg xmlns="http://www.w3.org/2000/svg" width="26" height="20" viewBox="0 0 26 20">
  <g id="Group_2317" data-name="Group 2317" transform="translate(-117.805 287.676)">
    <path id="Path_11872" data-name="Path 11872" d="M138.295-282.469c-.626.047-1.253.057-1.87.147a8.217,8.217,0,0,0-6.625,6.758,8.756,8.756,0,0,0,.629,5.043.409.409,0,0,1-.072.507c-.539.622-1.058,1.264-1.585,1.9a.911.911,0,0,1-1.558,0c-2.734-3.371-5.5-6.717-8.191-10.124a5.932,5.932,0,0,1,1.564-8.621,5.626,5.626,0,0,1,7.337,1.392l.142.176c1.962-2.221,4.271-3.032,7.02-1.833A5.6,5.6,0,0,1,138.295-282.469Z"/>
    <path id="Path_11873" data-name="Path 11873" d="M137.7-267.686a6.257,6.257,0,0,1-6.11-6.34,6.248,6.248,0,0,1,6.116-6.413,6.269,6.269,0,0,1,6.1,6.384A6.252,6.252,0,0,1,137.7-267.686Zm.705-5.623c.686,0,1.338,0,1.989,0a.738.738,0,0,0,.757-.75.727.727,0,0,0-.762-.739c-.565-.005-1.131,0-1.7,0-.092,0-.185-.008-.29-.013,0-.735.007-1.435,0-2.135a.714.714,0,0,0-.653-.71.708.708,0,0,0-.741.572,1.5,1.5,0,0,0-.027.329c0,.642,0,1.285,0,1.958-.672,0-1.314,0-1.956,0a.713.713,0,0,0-.77.722.726.726,0,0,0,.761.768c.521.007,1.042,0,1.564,0h.4c0,.712,0,1.384,0,2.056a.742.742,0,0,0,.529.769.712.712,0,0,0,.894-.736C138.409-271.9,138.4-272.582,138.4-273.309Z"/>
  </g>
</svg>
