<svg xmlns="http://www.w3.org/2000/svg" width="20" height="20" viewBox="0 0 20 20">
  <g id="Group_1532" data-name="Group 1532" transform="translate(-427.736 -249.317)">
    <path id="Path_11798" data-name="Path 11798" d="M427.794,249.318H429.3c2.295,0,4.589-.007,6.884.011a1.084,1.084,0,0,1,.7.25q5.117,5.114,10.2,10.256a2.035,2.035,0,0,1-.011,3q-2.91,2.938-5.849,5.85a2.041,2.041,0,0,1-2.922.033c-.262-.239-.53-.473-.774-.691,1.735-3.312,1.491-6.02-.659-8.061a6.07,6.07,0,0,0-7.81-.456c-.391-.409-.8-.822-1.189-1.255a.622.622,0,0,1-.117-.386q-.011-4.191-.007-8.381A.994.994,0,0,1,427.794,249.318Zm4.945,3.478a1.517,1.517,0,1,0-1.539,1.524A1.565,1.565,0,0,0,432.739,252.8Z"/>
    <path id="Path_11799" data-name="Path 11799" d="M437.7,264.306a4.983,4.983,0,1,1-5.07-4.971A4.96,4.96,0,0,1,437.7,264.306Zm-6,2.987h2.054v-1.985h1.962V263.3H433.7v-1.958h-2.026v1.993h-1.941v2H431.7Z"/>
  </g>
</svg>
