<svg id="Capa_1" enable-background="new 0 0 512 512" height="512" viewBox="0 0 512 512" width="512" xmlns="http://www.w3.org/2000/svg"><g><path d="m512 150.625v-75.375c0-8.284-6.716-15-15-15h-482c-8.284 0-15 6.716-15 15v75.375z"/><path d="m225.875 271.125h60.25c8.34 0 15.125-6.785 15.125-15.125s-6.785-15.125-15.125-15.125h-60.25c-8.34 0-15.125 6.785-15.125 15.125s6.785 15.125 15.125 15.125z"/><path d="m30.125 180.625v256.125c0 8.284 6.716 15 15 15h421.75c8.284 0 15-6.716 15-15v-256.125zm195.75 30.25h60.25c24.882 0 45.125 20.243 45.125 45.125s-20.243 45.125-45.125 45.125h-60.25c-24.882 0-45.125-20.243-45.125-45.125s20.243-45.125 45.125-45.125z"/></g></svg>