<svg xmlns="http://www.w3.org/2000/svg" width="24" height="24" viewBox="0 0 24 24">
  <g id="Group_2504" data-name="Group 2504" transform="translate(0 0)">
    <path id="Path_11880" data-name="Path 11880" d="M23.651,10.4a1.594,1.594,0,0,0-1.247-.55h-.158c-.093,0-.186,0-.284,0,.006-.22,0-.442,0-.663a1.433,1.433,0,0,0-.9-1.33,1.937,1.937,0,0,0-.7-.147c-.279-.014-.559-.011-.845-.008H19.4V2.368A2.336,2.336,0,0,0,17.051,0Q13.322,0,9.588,0H6.6A2.2,2.2,0,0,0,5.63.214,2.279,2.279,0,0,0,4.259,2.341c-.008.666-.007,1.333,0,2l0,.772H3A1.961,1.961,0,0,0,.99,7.093V7.81A1.513,1.513,0,0,0,0,9.29V22.422A1.528,1.528,0,0,0,1.615,24H20.509a1.526,1.526,0,0,0,1.569-1.27l.652-3.8q.621-3.634,1.245-7.27A1.526,1.526,0,0,0,23.651,10.4ZM18.05,9.4l0,.436H5.6V2.378A1.014,1.014,0,0,1,6.7,1.317H8.034q2.656,0,5.324,0a.082.082,0,0,1,.075.029l4.613,4.484Q18.052,7.615,18.05,9.4ZM16.98,1.318a1.01,1.01,0,0,1,1.07,1.035V3.934L15.359,1.317Zm2.427,8.516V9.025h.687c.218,0,.515-.012.523.171.008.2.006.4,0,.605v.034ZM1.52,22.356,3.4,11.368c.026-.149.094-.2.251-.2H22.412a.262.262,0,0,1,.2.074.237.237,0,0,1,.036.194L20.765,22.444c-.034.192-.09.239-.292.239H1.811a.357.357,0,0,1-.263-.073A.332.332,0,0,1,1.52,22.356ZM4.248,9.846H3.594a1.516,1.516,0,0,0-1.156.522,1.7,1.7,0,0,0-.38.879q-.357,2.091-.713,4.181V9.269c0-.149.044-.241.262-.244a.669.669,0,0,0,.721-.71V7.1a.641.641,0,0,1,.684-.665l.557,0h.679Z" fill="#9ba7ac"/>
    <path id="Path_11881" data-name="Path 11881" d="M13.391,7.656H7.024c-.063,0-.123,0-.182,0a.657.657,0,0,0-.469.256.646.646,0,0,0-.123.508.662.662,0,0,0,.7.549H13.4a.611.611,0,0,0,.1-.006.659.659,0,0,0,.551-.447.636.636,0,0,0-.079-.581A.7.7,0,0,0,13.391,7.656Z" fill="#9ba7ac"/>
    <path id="Path_11882" data-name="Path 11882" d="M6.987,2.324a1.148,1.148,0,0,0-.186.011.665.665,0,0,0-.45.282.65.65,0,0,0-.095.511.664.664,0,0,0,.7.516h6.178c.1,0,.2,0,.306,0a.673.673,0,0,0,.541-.3.643.643,0,0,0,.057-.6.675.675,0,0,0-.7-.418Z" fill="#9ba7ac"/>
    <path id="Path_11883" data-name="Path 11883" d="M13.6,5.016a.88.88,0,0,0-.278-.026H7a1.6,1.6,0,0,0-.162.005.655.655,0,0,0-.575.491.644.644,0,0,0,.111.557.7.7,0,0,0,.563.263H13.41a.66.66,0,0,0,.67-.571A.653.653,0,0,0,13.6,5.016Z" fill="#9ba7ac"/>
  </g>
</svg>
