<svg xmlns="http://www.w3.org/2000/svg" width="20" height="24" viewBox="0 0 20 24">
  <g id="Group_2032" data-name="Group 2032" transform="translate(-2)">
    <path id="Path_11795" data-name="Path 11795" d="M10.946,22.234c-.466,0-.933,0-1.4,0H3.9a.366.366,0,0,1-.385-.277.958.958,0,0,1-.019-.225V2.028a1.2,1.2,0,0,1,0-.134.354.354,0,0,1,.252-.328.78.78,0,0,1,.222-.021H18.949a1.052,1.052,0,0,1,.137,0,.364.364,0,0,1,.328.291,1.079,1.079,0,0,1,.013.213v9.9c0,.038,0,.076,0,.115a.758.758,0,0,0,.743.766h.015a.756.756,0,0,0,.729-.793q0-5.058,0-10.117A1.919,1.919,0,0,0,19.53.063l-.165-.04L3.659,0l-.08.009L3.557.026A1.955,1.955,0,0,0,2,2.04c.016.879.012,1.757.009,2.636l0,2.911q0,7.077,0,14.152a2.392,2.392,0,0,0,.074.633,1.857,1.857,0,0,0,1.839,1.4h6.938a1.231,1.231,0,0,0,.192-.014.722.722,0,0,0,.58-.481.783.783,0,0,0-.08-.72A.73.73,0,0,0,10.946,22.234Z" fill="#5f3818"/>
    <path id="Path_11796" data-name="Path 11796" d="M21.854,16.669a5.871,5.871,0,0,0-5.12-4.62A5.3,5.3,0,0,0,12.9,13.181a5.878,5.878,0,0,0-2.274,5.881,5.8,5.8,0,0,0,4.493,4.814c.177.039.358.063.54.088l.233.034.721,0,.142-.024c.075-.012.151-.021.227-.031a4.823,4.823,0,0,0,.493-.081A5.977,5.977,0,0,0,21.854,16.669Zm-1.34,1.347a4.522,4.522,0,0,1-1.251,3.144,4.119,4.119,0,0,1-2.993,1.3h-.006a4.353,4.353,0,0,1-4.244-4.445,4.519,4.519,0,0,1,1.251-3.142,4.122,4.122,0,0,1,2.993-1.3h0A4.355,4.355,0,0,1,20.514,18.016Z" fill="#5f3818"/>
    <path id="Path_11797" data-name="Path 11797" d="M14.989,6.467a.745.745,0,0,0,.653-.7.761.761,0,0,0-.529-.8,1.043,1.043,0,0,0-.294-.034H7.351c-.642,0-1.283,0-1.925,0a.745.745,0,0,0-.733.682.767.767,0,0,0,.53.82,1.166,1.166,0,0,0,.328.036h9.231A1.782,1.782,0,0,0,14.989,6.467Z" fill="#5f3818"/>
    <path id="Path_11798" data-name="Path 11798" d="M13.858,9.736a.72.72,0,0,0,.465-.312.78.78,0,0,0,.12-.583.752.752,0,0,0-.777-.627H5.47l-.092,0a.736.736,0,0,0-.531.3.787.787,0,0,0-.14.628.756.756,0,0,0,.785.616h8.123A1.307,1.307,0,0,0,13.858,9.736Z" fill="#5f3818"/>
    <path id="Path_11799" data-name="Path 11799" d="M9.344,11.418H6.712q-.639,0-1.275,0a.743.743,0,0,0-.588.292.785.785,0,0,0-.133.679.756.756,0,0,0,.754.569h5.957a.9.9,0,0,0,.148-.013.721.721,0,0,0,.593-.527.762.762,0,0,0-.726-1Q10.393,11.416,9.344,11.418Z" fill="#5f3818"/>
    <path id="Path_11800" data-name="Path 11800" d="M17.5,18.042h-.491v-.557q0-1.046,0-2.089a1.087,1.087,0,0,0-.042-.317.733.733,0,0,0-.813-.522.763.763,0,0,0-.635.775q0,1.715,0,3.432a.765.765,0,0,0,.793.819h1.079l1.653,0a.93.93,0,0,0,.287-.042.764.764,0,0,0,.5-.846.747.747,0,0,0-.73-.651C18.57,18.041,18.038,18.043,17.5,18.042Z" fill="#5f3818"/>
  </g>
</svg>
