<svg xmlns="http://www.w3.org/2000/svg" width="24" height="24.001" viewBox="0 0 24 24.001">
  <g id="Group_2031" data-name="Group 2031" transform="translate(0 0)">
    <path id="Path_11793" data-name="Path 11793" d="M21.873,16.258a.674.674,0,0,0-.517-.114c-.442.071-.885.138-1.327.205l-1.584.241c-.653.1-1.305.2-1.954.314a.594.594,0,0,0-.4.256.718.718,0,0,0-.1.548.664.664,0,0,0,.755.5l3.459-.529-.955,1.157c-.059.073-.106.131-.157.185a9.778,9.778,0,0,1-8.27,3.35,9.875,9.875,0,0,1-7.9-4.846A10.293,10.293,0,0,1,1.519,13.8a.737.737,0,0,0-.665-.631.773.773,0,0,0-.818.55c-.012.03-.023.061-.036.091v.3a1.084,1.084,0,0,1,.043.147,11.815,11.815,0,0,0,10.537,9.7,11.428,11.428,0,0,0,9.688-3.911c.036-.039.077-.078.13-.128l.729-.694.219.927.158,1.067c.031.211.061.421.1.631a.764.764,0,0,0,.292.5.6.6,0,0,0,.453.09.683.683,0,0,0,.522-.837q-.366-2.432-.722-4.864A.711.711,0,0,0,21.873,16.258Z" fill="#5f3818"/>
    <path id="Path_11794" data-name="Path 11794" d="M2.686,3.782,2.521,2.661c-.027-.188-.055-.377-.087-.566a.652.652,0,0,0-.665-.551.652.652,0,0,0-.6.671,3.709,3.709,0,0,0,.056.491l.228,1.571c.139.949.276,1.9.4,2.848a.9.9,0,0,0,.3.606.8.8,0,0,0,.61.112l2.352-.356c.815-.123,1.63-.246,2.441-.389a.581.581,0,0,0,.389-.25.707.707,0,0,0,.105-.534.655.655,0,0,0-.76-.518c-.468.075-.937.147-1.426.221l-2.006.308L4.727,5.2a1.77,1.77,0,0,1,.127-.158A9.807,9.807,0,0,1,12.291,1.6a11.122,11.122,0,0,1,1.4.09,9.887,9.887,0,0,1,7.75,5.429A10.779,10.779,0,0,1,22.5,10.249a.729.729,0,0,0,.317.474.745.745,0,0,0,.585.106.8.8,0,0,0,.591-.924A11.816,11.816,0,0,0,11.223.067a10.841,10.841,0,0,0-7.47,3.871L3.031,5.626" fill="#5f3818"/>
  </g>
</svg>
