<svg xmlns="http://www.w3.org/2000/svg" width="20" height="24" viewBox="0 0 20 24">
  <g id="Group_2034" data-name="Group 2034" transform="translate(-2 0)">
    <path id="Path_11803" data-name="Path 11803" d="M12.724,21.016A1.774,1.774,0,0,0,12.367,21h-.106L3.4,21V1.393H17.538v7.8q0,.61,0,1.221c-.005,1.2-.01,2.436.024,3.652a1.021,1.021,0,0,0,.407.7.867.867,0,0,0,.678-.1,1.168,1.168,0,0,0,.313-.558l.014-.036q.926-2.514,1.839-5.033l.93-2.55a2.23,2.23,0,0,0,.136-1.72,2.179,2.179,0,0,0-1.419-.913c-1.534-.472-1.578-.532-1.588-2.135A1.529,1.529,0,0,0,17.147,0Q10.46,0,3.775,0a1.542,1.542,0,0,0-1.77,1.734Q2,11.151,2,20.567c0,1.253.514,1.766,1.775,1.771q2.738.01,5.481.005h2.289c.373,0,.758,0,1.136-.014a.575.575,0,0,0,.608-.6A.62.62,0,0,0,12.724,21.016ZM18.909,4.8l1.8.547-1.46,4-.344-.061Z" fill="#9ba7ac"/>
    <path id="Path_11804" data-name="Path 11804" d="M21.566,18.885c-.224-.04-.45-.068-.676-.1a8.934,8.934,0,0,1-1.039-.173,1.381,1.381,0,0,1-.774-.555,8.1,8.1,0,0,1-.44-.839c-.111-.231-.225-.471-.355-.693a.743.743,0,0,0-.4-.32c-.1,0-.3.168-.4.336a11.6,11.6,0,0,0-.7,1.411,1.034,1.034,0,0,1-.958.7,11.215,11.215,0,0,0-1.564.236.678.678,0,0,0-.424.27.7.7,0,0,0,.186.492c.176.195.375.382.568.562a8.67,8.67,0,0,1,.655.659,1.262,1.262,0,0,1,.273.86c-.046.459-.135.912-.221,1.35-.033.167-.066.333-.1.5a.437.437,0,0,0,.176.376.422.422,0,0,0,.408-.014c.245-.116.485-.242.726-.367.319-.168.651-.341.989-.489a1.06,1.06,0,0,1,.785,0c.294.13.581.282.859.43.258.137.527.279.8.4a.589.589,0,0,0,.452.01.592.592,0,0,0,.146-.441c-.027-.25-.077-.5-.124-.752a7.27,7.27,0,0,1-.143-.953,1.479,1.479,0,0,1,.311-.955,7.831,7.831,0,0,1,.717-.728c.175-.162.35-.325.513-.5a.489.489,0,0,0,.177-.449C21.946,19.02,21.793,18.925,21.566,18.885Z" fill="#9ba7ac"/>
    <path id="Path_11805" data-name="Path 11805" d="M14.407,12c-.643-.006-1.287,0-1.924,0h-2c-1.335,0-2.668,0-4,0a.944.944,0,0,0-.772.293.624.624,0,0,0-.079.563c.095.349.336.5.806.5q1.586,0,3.17,0H10.4l1.212,0c.935,0,1.874.005,2.811-.008a.98.98,0,0,0,.7-.228.609.609,0,0,0,.157-.453C15.269,12.234,14.976,12.01,14.407,12Z" fill="#9ba7ac"/>
    <path id="Path_11806" data-name="Path 11806" d="M6.355,10.31c.98.008,1.958.007,2.935,0l1.141,0h1.148c.957,0,1.913,0,2.867,0a.918.918,0,0,0,.663-.219.638.638,0,0,0,.165-.479c-.009-.557-.515-.649-.815-.655-.386-.007-.771,0-1.156,0-.21,0-.422,0-.632,0H6.632c-.1,0-.207,0-.31.01-.285.025-.757.145-.72.675A.662.662,0,0,0,6.355,10.31Z" fill="#9ba7ac"/>
    <path id="Path_11807" data-name="Path 11807" d="M15.119,6.127a.953.953,0,0,0-.688-.21q-3.961,0-7.927,0a1.026,1.026,0,0,0-.743.224A.616.616,0,0,0,5.6,6.6c.008.528.485.64.883.641q1.4,0,2.8,0h2.233c.964,0,1.929,0,2.9,0,.77,0,.862-.377.864-.657A.62.62,0,0,0,15.119,6.127Z" fill="#9ba7ac"/>
    <path id="Path_11808" data-name="Path 11808" d="M5.768,15.284a.618.618,0,0,0-.163.468c.012.55.518.635.819.636q1.445.007,2.885,0h1.282v0H11.6c.949,0,1.9,0,2.851,0a.928.928,0,0,0,.669-.2.635.635,0,0,0,.152-.483c-.008-.428-.273-.636-.809-.637q-4.017-.008-8.031-.005A.911.911,0,0,0,5.768,15.284Z" fill="#9ba7ac"/>
  </g>
</svg>
