<svg xmlns="http://www.w3.org/2000/svg" width="22" height="20" viewBox="0 0 22 20">
  <g id="Group_2365" data-name="Group 2365" transform="translate(-245 -246)">
    <g id="Group_2364" data-name="Group 2364">
      <g id="Group_2363" data-name="Group 2363">
        <path id="Path_11875" data-name="Path 11875" d="M256.917,253.067v-2.029l3.666,3.552-1.448,1.4,5.078,5.277a1.9,1.9,0,0,0,.944-1.657l.01-9.524a1.87,1.87,0,0,0-1.834-1.9H251.618l4.795,4.981C256.578,253.124,256.743,253.1,256.917,253.067Z"/>
        <path id="Path_11876" data-name="Path 11876" d="M264.452,261.514l1.833,1.9H267v-1.9Z"/>
        <path id="Path_11877" data-name="Path 11877" d="M246.017,247.21l1.412,1.466a1.923,1.923,0,0,0-.6,1.41v9.524a1.87,1.87,0,0,0,1.834,1.9H245v1.9h16.619L264.1,266l1.165-1.21L247.191,246Zm7.3,7.58,1.458,1.515a5.705,5.705,0,0,0-3.355,2.352A7.469,7.469,0,0,1,253.314,254.79Z"/>
      </g>
    </g>
  </g>
</svg>
