<svg xmlns="http://www.w3.org/2000/svg" width="18" height="24" viewBox="0 0 18 24">
  <g id="Group_2033" data-name="Group 2033" transform="translate(-3)">
    <path id="Path_11801" data-name="Path 11801" d="M20.519.019,8.9,0,8.713.158A3.12,3.12,0,0,0,8.45.4L6.587,2.354Q4.966,4.061,3.339,5.763A1.178,1.178,0,0,0,3,6.623q.008,6.592,0,13.184v3.3c0,.654.234.9.864.9H20.122c.647,0,.876-.237.876-.907V13.067q0-6.1,0-12.193A.832.832,0,0,0,20.519.019Zm-.958,1.459V22.517H4.435V7.149h4.58c.558,0,.808-.258.809-.836V1.478ZM5.456,5.668l2.929-3.08v3.08Z" fill="#9ba7ac"/>
    <path id="Path_11802" data-name="Path 11802" d="M8.21,11.113a2.909,2.909,0,0,0,.318,5.729,2.673,2.673,0,0,0,2.2-.964l2.423,1.1a1.453,1.453,0,0,0,.145.054c.043.014.106.036.107.022a.759.759,0,0,1-.005.153,1.913,1.913,0,0,0-.009.218,2.433,2.433,0,0,0,1.508,2.207,2.277,2.277,0,0,0,2.568-.644,2.553,2.553,0,0,0,.387-2.682A2.339,2.339,0,0,0,16.1,14.92a2.278,2.278,0,0,0-2.077.763c-.035.039-.05.046-.072.019-.186-.1-.379-.187-.572-.274L11.4,14.506a2.219,2.219,0,0,0,.021-1.2l2.593-1.193a2.288,2.288,0,0,0,3.038.423,2.53,2.53,0,0,0,.879-3,2.311,2.311,0,0,0-2.675-1.439,2.434,2.434,0,0,0-1.822,2.646l-.775.369c-.634.3-1.268.6-1.9.913-.025.013-.041.019-.046.023a.46.46,0,0,1-.038-.036A2.615,2.615,0,0,0,8.21,11.113Zm.482,4.268H8.681a1.294,1.294,0,0,1-.94-.418,1.5,1.5,0,0,1,.046-2.055,1.283,1.283,0,0,1,.9-.371h.026a1.374,1.374,0,0,1,1.318,1.421A1.456,1.456,0,0,1,9.616,15,1.3,1.3,0,0,1,8.692,15.381Zm6.118,2.013h0a1.014,1.014,0,0,1,.262-.7.883.883,0,0,1,.648-.278h0a.928.928,0,0,1,.921.969,1,1,0,0,1-.283.719.878.878,0,0,1-.631.265h0A.928.928,0,0,1,14.81,17.394ZM15.728,9.6a.887.887,0,0,1,.629.262,1.008,1.008,0,0,1,.288.715.944.944,0,0,1-.917.986h0a.877.877,0,0,1-.625-.26,1.006,1.006,0,0,1-.289-.718.933.933,0,0,1,.913-.985Z" fill="#9ba7ac"/>
  </g>
</svg>
