<svg xmlns="http://www.w3.org/2000/svg" width="18" height="20" viewBox="0 0 18 20">
  <path id="Path_11874" data-name="Path 11874" d="M261.393,259.333a3.24,3.24,0,0,0-2.4,1.075l-5.919-3.438a3.387,3.387,0,0,0,0-1.941l5.919-3.437a3.237,3.237,0,0,0,2.4,1.075,3.334,3.334,0,1,0-3.272-3.334,3.424,3.424,0,0,0,.093.79l-6,3.484a3.232,3.232,0,0,0-2.275-.94,3.334,3.334,0,0,0,0,6.666,3.227,3.227,0,0,0,2.275-.941l6,3.484a3.432,3.432,0,0,0-.093.791,3.273,3.273,0,1,0,3.272-3.334Z" transform="translate(-246.666 -246)"/>
</svg>
